<?xml version="1.0" encoding="UTF-8"?>
<!-- Generator: Adobe Illustrator 18.1.1, SVG Export Plug-In . SVG Version: 6.00 Build 0)  -->
<svg version="1.1" id="Livello_1" xmlns="http://www.w3.org/2000/svg" xmlns:xlink="http://www.w3.org/1999/xlink" x="0px" y="0px" viewBox="0 0 74 72.5" enable-background="new 0 0 74 72.5" xml:space="preserve">
<g>
	<g>
		<path fill="#FFFFFF" d="M61,72.1H13c-6.9,0-12.6-5.6-12.6-12.6V6.8c0-3.3,2.7-6,6-6h61.2c3.3,0,6,2.7,6,6v52.8    C73.5,66.5,67.9,72.1,61,72.1z M6.4,5.8c-0.5,0-1,0.4-1,1v52.8c0,4.2,3.4,7.6,7.6,7.6H61c4.2,0,7.6-3.4,7.6-7.6V6.8    c0-0.5-0.4-1-1-1H6.4z"/>
	</g>
	<g>
		<path fill="#FFFFFF" d="M37,31.5c-10.2,0-18.5-8-18.5-17.7c0-1.4,1.1-2.5,2.5-2.5s2.5,1.1,2.5,2.5c0,7,6.1,12.7,13.5,12.7    s13.5-5.7,13.5-12.7c0-1.4,1.1-2.5,2.5-2.5s2.5,1.1,2.5,2.5C55.5,23.5,47.2,31.5,37,31.5z"/>
	</g>
</g>
</svg>